<svg xmlns="http://www.w3.org/2000/svg" xmlns:xlink="http://www.w3.org/1999/xlink" width="129" height="32" viewBox="0 0 129 32">
    <defs>
        <path id="a" d="M0 29.982h127.406V0H0z"/>
    </defs>
    <g fill="none" fill-rule="evenodd" transform="translate(1 1)">
        <path stroke="#255CA8" stroke-width="1.941" d="M29.463 14.991c0 7.944-6.46 14.385-14.428 14.385C7.066 29.376.606 22.935.606 14.99S7.066.607 15.035.607c7.968 0 14.428 6.44 14.428 14.384z"/>
        <path fill="#255CA8" d="M22.638 13.106c-.189-.128-.3-.207-.417-.28-2.348-1.505-4.7-3.005-7.042-4.518-.236-.153-.407-.14-.644-.016-2.486 1.302-4.976 2.593-7.467 3.889-.42.218-.42.22-.028.47 2.326 1.481 4.656 2.957 6.975 4.452.264.17.458.16.719.025 1.276-.663 2.56-1.308 3.843-1.96l4.06-2.062M4.953 13.8a12.53 12.53 0 0 1-.05-1.493c.005-.222.076-.35.28-.457 3.173-1.643 6.345-3.291 9.51-4.948.194-.102.327-.07.495.04 1.48.96 2.957 1.923 4.45 2.863 1.117.705 2.215 1.44 3.35 2.12.577.344 1.112.76 1.704 1.089.252.14.195.258-.052.381-1.932.971-3.86 1.953-5.789 2.932-1.394.708-2.792 1.408-4.177 2.132-.29.151-.492.123-.76-.049-2.464-1.585-4.94-3.156-7.416-4.729-.11-.07-.223-.24-.356-.15-.115.08-.037.26-.03.394.05.765.119 1.53.156 2.295.012.24.109.375.302.498 2.614 1.664 5.225 3.332 7.832 5.007.201.13.35.146.568.034 2.9-1.5 5.807-2.99 8.711-4.483.196-.1.392-.202.59-.301.511-.258.511-.257.755.286.228.508.229.508-.274.768-3.228 1.66-6.458 3.315-9.68 4.985-.32.166-.548.179-.866-.027-2.695-1.747-5.385-3.504-8.123-5.18-.726-.443-1.02-.927-.997-1.745.02-.777-.087-1.557-.133-2.262"/>
        <path fill="#255CA8" d="M23.376 16.416c.014.189-.153.18-.252.233a8417.275 8417.275 0 0 1-7.059 3.668c-.136.071-.27.149-.4.227-.126.076-.247.141-.354-.029-.125-.197.046-.243.16-.302.94-.49 1.883-.976 2.824-1.465 1.56-.81 3.122-1.622 4.68-2.435.171-.088.337-.192.401.103M15.461 19.44c-.078.013-.136-.02-.174-.085-.045-.076-.067-.163.013-.226.063-.051.144-.083.218-.121 2.471-1.287 4.943-2.575 7.418-3.856.113-.058.253-.237.375.005.116.228-.092.255-.209.316-2.471 1.287-4.945 2.571-7.418 3.855-.074.038-.148.074-.223.111M38.796 8.911H46.3v1.39h-5.836v4.093h4.923v1.412h-4.923v4.728h6.034v1.41h-7.7zM52.993 12.05c1.271 0 2.164.537 2.818 1.152l-.813 1.053c-.575-.496-1.172-.854-1.945-.854-1.747 0-3.017 1.51-3.017 3.736 0 2.205 1.21 3.695 2.977 3.695.913 0 1.687-.457 2.263-.973l.734 1.072c-.873.775-1.985 1.252-3.136 1.252-2.56 0-4.525-1.848-4.525-5.046 0-3.239 2.163-5.087 4.644-5.087M58.12 7.799h1.608v9.577h.058l4.11-5.087h1.806l-3.236 3.874 3.672 5.782h-1.786l-2.819-4.65-1.805 2.106v2.544h-1.609zM71.344 20.832c1.668 0 2.78-1.49 2.78-3.695 0-2.225-1.112-3.736-2.78-3.736-1.647 0-2.779 1.51-2.779 3.736 0 2.205 1.132 3.695 2.779 3.695m0-8.782c2.362 0 4.466 1.848 4.466 5.087 0 3.198-2.104 5.046-4.466 5.046-2.361 0-4.466-1.848-4.466-5.046 0-3.24 2.105-5.087 4.466-5.087M76.888 12.29h1.688l1.825 5.482c.278.954.596 1.927.894 2.841h.079c.278-.914.595-1.887.873-2.84l1.826-5.484h1.608l-3.414 9.656H80.36l-3.473-9.656zM89.973 20.872c.933 0 1.706-.457 2.64-1.292V16.9c-3.236.396-4.327 1.191-4.327 2.423 0 1.093.734 1.55 1.687 1.55m2.64-5.047c0-1.231-.417-2.424-1.984-2.424-1.132 0-2.125.518-2.879 1.033l-.655-1.132c.893-.576 2.243-1.252 3.79-1.252 2.363 0 3.356 1.57 3.356 3.973v5.922h-1.35l-.139-1.153h-.04c-.933.756-2.004 1.391-3.195 1.391-1.628 0-2.838-1.013-2.838-2.742 0-2.105 1.825-3.159 5.934-3.616M97.6 13.62h-1.428v-1.232l1.507-.099.2-2.702h1.37v2.702h2.599v1.33h-2.6v5.365c0 1.193.377 1.868 1.489 1.868.337 0 .774-.14 1.091-.258l.318 1.232c-.535.179-1.191.357-1.787.357-2.063 0-2.758-1.31-2.758-3.218V13.62z"/>
        <mask id="b" fill="#fff">
            <use xlink:href="#a"/>
        </mask>
        <path fill="#255CA8" d="M104.035 21.945h1.627v-9.656h-1.627v9.656zm-.298-12.696c0-.635.497-1.053 1.132-1.053.635 0 1.131.418 1.131 1.053 0 .616-.496 1.053-1.131 1.053s-1.132-.437-1.132-1.053zM112.672 20.832c1.667 0 2.779-1.49 2.779-3.695 0-2.225-1.112-3.736-2.78-3.736-1.646 0-2.778 1.51-2.778 3.736 0 2.205 1.132 3.695 2.779 3.695m0-8.782c2.362 0 4.466 1.848 4.466 5.087 0 3.198-2.104 5.046-4.466 5.046s-4.466-1.848-4.466-5.046c0-3.24 2.104-5.087 4.466-5.087M119.685 12.29h1.349l.14 1.39h.058c.914-.915 1.906-1.63 3.237-1.63 2.024 0 2.937 1.312 2.937 3.775v6.12h-1.628v-5.9c0-1.809-.556-2.584-1.826-2.584-.993 0-1.667.516-2.64 1.49v6.994h-1.627v-9.656z" mask="url(#b)"/>
    </g>
</svg>
